<?xml version="1.0" encoding="utf-8"?>
<!-- Generator: Adobe Illustrator 22.1.0, SVG Export Plug-In . SVG Version: 6.00 Build 0)  -->
<svg version="1.1" id="Capa_1" xmlns="http://www.w3.org/2000/svg" xmlns:xlink="http://www.w3.org/1999/xlink" x="0px" y="0px"
	 viewBox="0 0 100 105.9" style="enable-background:new 0 0 100 105.9;" xml:space="preserve">
<style type="text/css">
	.st0{fill:#FFFFFF;}
</style>
<g>
	<path class="st0" d="M77.7,50.3c-2.2,0-4,1.8-4,4v25.2H19.6V25.4h25.2c2.2,0,4-1.8,4-4s-1.8-4-4-4H15.6c-2.2,0-4,1.8-4,4v62.1
		c0,2.2,1.8,4,4,4h62.1c2.2,0,4-1.8,4-4V54.3C81.7,52.1,79.9,50.3,77.7,50.3z"/>
	<path class="st0" d="M85.1,15.8c-4.4-4.4-11.6-4.4-16,0L63.9,21l-22,22c-0.5,0.5-0.9,1.1-1,1.8l-3.7,14.1c-0.4,1.4,0,2.8,1,3.8
		c0.8,0.8,1.8,1.2,2.8,1.2c0.3,0,0.7,0,1-0.1L56.1,60c0.7-0.2,1.3-0.5,1.8-1l22-22l5.2-5.2C89.5,27.4,89.5,20.3,85.1,15.8L85.1,15.8
		z M53.1,52.6l-6.4,1.7l1.7-6.4l18.4-18.4l4.7,4.7L53.1,52.6z M79.4,26.2l-2.4,2.4l-4.7-4.7l2.4-2.4c1.3-1.3,3.4-1.3,4.7,0
		C80.7,22.8,80.7,24.9,79.4,26.2z"/>
</g>
</svg>
