<?xml version="1.0" encoding="utf-8"?>
<!-- Generator: Adobe Illustrator 22.1.0, SVG Export Plug-In . SVG Version: 6.00 Build 0)  -->
<svg version="1.1" xmlns="http://www.w3.org/2000/svg" xmlns:xlink="http://www.w3.org/1999/xlink" x="0px" y="0px"
	 viewBox="0 0 100 125" style="enable-background:new 0 0 100 125;" xml:space="preserve">
<style type="text/css">
	.st0{fill:#FFFFFF;}
</style>
<g id="Capa_2">
</g>
<g id="Capa_1">
	<path class="st0" d="M50,0C22.4,0,0,22.4,0,50c0,27.6,22.4,50,50,50s50-22.4,50-50C100,22.4,77.6,0,50,0z M50,90.9
		C27.4,90.9,9.1,72.6,9.1,50C9.1,27.4,27.4,9.1,50,9.1S90.9,27.4,90.9,50C90.9,72.6,72.6,90.9,50,90.9z"/>
	<path class="st0" d="M67.4,46H54V31.6c0-2-2-3.6-4-3.6s-4,1.6-4,3.6V46H31.6c-2,0-3.6,2-3.6,4s1.6,4,3.6,4H46v13.4c0,2,2,3.6,4,3.6
		s4-1.6,4-3.6V54h13.4c2,0,3.6-2,3.6-4S69.4,46,67.4,46z"/>
</g>
</svg>
