<?xml version="1.0" encoding="utf-8"?>
<!-- Generator: Adobe Illustrator 22.1.0, SVG Export Plug-In . SVG Version: 6.00 Build 0)  -->
<svg version="1.1" id="Capa_1" xmlns="http://www.w3.org/2000/svg" xmlns:xlink="http://www.w3.org/1999/xlink" x="0px" y="0px"
	 viewBox="0 0 46 51.2" style="enable-background:new 0 0 46 51.2;" xml:space="preserve">
<style type="text/css">
	.st0{fill:#FFFFFF;}
</style>
<g>
	<g transform="translate(-1282.000000, -2923.000000)">
		<g transform="translate(275.000000, 1935.000000)">
			<g transform="translate(75.000000, 512.000000)">
				<g transform="translate(932.000000, 476.000000)">
					<path class="st0" d="M42.3,23.5H10l12.7-12.7c1.1-1.1,1.1-3,0-4.1c-1.1-1.1-3-1.1-4.1,0L0.9,24.2c-0.6,0.6-0.9,1.3-0.8,2.1
						c0,0,0,0,0,0v0c0,0,0,0,0,0.1c0,0.4,0.1,0.7,0.2,1c0.1,0.2,0.2,0.4,0.4,0.5c0.1,0.1,0.1,0.3,0.3,0.4L18.5,46
						c1.1,1.1,3,1.1,4.1,0c1.1-1.1,1.1-3,0-4.1L10,29.3h32.3c1.6,0,2.9-1.3,2.9-2.9C45.2,24.8,43.9,23.5,42.3,23.5"/>
				</g>
			</g>
		</g>
	</g>
</g>
</svg>
